<svg xmlns="http://www.w3.org/2000/svg" version="1" xmlns:xlink="http://www.w3.org/1999/xlink" width="500" zoomAndPan="magnify" viewBox="0 0 375 374.999991" height="500" preserveAspectRatio="xMidYMid meet"><defs><clipPath id="2b9f4e1213"><path d="M 52.394531 52.46875 L 174.96875 52.46875 L 174.96875 173.101562 L 52.394531 173.101562 Z M 52.394531 52.46875 " clip-rule="nonzero"></path></clipPath><clipPath id="88e80b5abf"><path d="M 0.394531 0.46875 L 122.96875 0.46875 L 122.96875 121.101562 L 0.394531 121.101562 Z M 0.394531 0.46875 " clip-rule="nonzero"></path></clipPath><clipPath id="6c0a771e4a"><rect x="0" width="123" y="0" height="122"></rect></clipPath><clipPath id="f595762c80"><path d="M 204.691406 201.898438 L 327.265625 201.898438 L 327.265625 322.53125 L 204.691406 322.53125 Z M 204.691406 201.898438 " clip-rule="nonzero"></path></clipPath><clipPath id="4bceb881af"><path d="M 0.691406 0.898438 L 123.265625 0.898438 L 123.265625 121.53125 L 0.691406 121.53125 Z M 0.691406 0.898438 " clip-rule="nonzero"></path></clipPath><clipPath id="204107ac3a"><rect x="0" width="124" y="0" height="122"></rect></clipPath><clipPath id="d0c938ad5e"><path d="M 204.691406 52.46875 L 327.265625 52.46875 L 327.265625 173.101562 L 204.691406 173.101562 Z M 204.691406 52.46875 " clip-rule="nonzero"></path></clipPath><clipPath id="a1946a93f3"><path d="M 0.691406 0.46875 L 123.265625 0.46875 L 123.265625 121.101562 L 0.691406 121.101562 Z M 0.691406 0.46875 " clip-rule="nonzero"></path></clipPath><clipPath id="006957017c"><rect x="0" width="124" y="0" height="122"></rect></clipPath><clipPath id="9eae208a78"><path d="M 52.394531 201.898438 L 174.96875 201.898438 L 174.96875 322.53125 L 52.394531 322.53125 Z M 52.394531 201.898438 " clip-rule="nonzero"></path></clipPath><clipPath id="8c13df685a"><path d="M 0.394531 0.898438 L 122.96875 0.898438 L 122.96875 121.53125 L 0.394531 121.53125 Z M 0.394531 0.898438 " clip-rule="nonzero"></path></clipPath><clipPath id="10a55fc8c5"><rect x="0" width="123" y="0" height="122"></rect></clipPath></defs><g clip-path="url(#2b9f4e1213)"><g transform="matrix(1, 0, 0, 1, 52, 52)"><g clip-path="url(#6c0a771e4a)"><g clip-path="url(#88e80b5abf)"><path fill="#000000" d="M 0.394531 0.46875 L 122.910156 0.46875 L 122.910156 121.101562 L 0.394531 121.101562 Z M 0.394531 0.46875 " fill-opacity="1" fill-rule="nonzero"></path></g></g></g></g><g clip-path="url(#f595762c80)"><g transform="matrix(1, 0, 0, 1, 204, 201)"><g clip-path="url(#204107ac3a)"><g clip-path="url(#4bceb881af)"><path fill="#000000" d="M 0.691406 0.898438 L 123.207031 0.898438 L 123.207031 121.53125 L 0.691406 121.53125 Z M 0.691406 0.898438 " fill-opacity="1" fill-rule="nonzero"></path></g></g></g></g><g clip-path="url(#d0c938ad5e)"><g transform="matrix(1, 0, 0, 1, 204, 52)"><g clip-path="url(#006957017c)"><g clip-path="url(#a1946a93f3)"><path fill="#000000" d="M 0.691406 0.46875 L 123.207031 0.46875 L 123.207031 121.101562 L 0.691406 121.101562 Z M 0.691406 0.46875 " fill-opacity="1" fill-rule="nonzero"></path></g></g></g></g><g clip-path="url(#9eae208a78)"><g transform="matrix(1, 0, 0, 1, 52, 201)"><g clip-path="url(#10a55fc8c5)"><g clip-path="url(#8c13df685a)"><path fill="#000000" d="M 0.394531 0.898438 L 122.910156 0.898438 L 122.910156 121.53125 L 0.394531 121.53125 Z M 0.394531 0.898438 " fill-opacity="1" fill-rule="nonzero"></path></g></g></g></g><path stroke-linecap="round" transform="matrix(0.75, 0, 0, 0.75, 28.655917, 185.999988)" fill="none" stroke-linejoin="miter" d="M 2.000444 2.000016 L 421.583805 2.000016 " stroke="#d3af37" stroke-width="4" stroke-opacity="1" stroke-miterlimit="4"></path><path stroke-linecap="round" transform="matrix(0, -0.75, 0.75, 0, 188.32804, 346.341774)" fill="none" stroke-linejoin="miter" d="M 2.002574 2.000113 L 421.585935 2.000113 " stroke="#d3af37" stroke-width="4" stroke-opacity="1" stroke-miterlimit="4"></path></svg>